RC-Bold.ufo
<glyph name="exclam" format="1">
  <advance width="358"/>
  <unicode hex="0021"/>
  <outline>
    <contour>
      <point x="96" y="690" type="line"/>
      <point x="96" y="525" type="line"/>
      <point x="122" y="260" type="line"/>
      <point x="236" y="260" type="line"/>
      <point x="262" y="525" type="line"/>
      <point x="262" y="690" type="line"/>
    </contour>
    <component base="period" xOffset="40"/>
  </outline>
</glyph>
<glyph name="parenleft" format="1">
  <advance width="300"/>
  <unicode hex="0028"/>
  <outline>
    <contour>
      <point x="205" y="268" type="curve"/>
      <point x="205" y="453"/>
      <point x="253" y="594"/>
      <point x="350" y="730" type="curve"/>
      <point x="278" y="791" type="line"/>
      <point x="143" y="649"/>
      <point x="65" y="494"/>
      <point x="65" y="268" type="curve"/>
      <point x="65" y="42"/>
      <point x="143" y="-114"/>
      <point x="278" y="-256" type="curve"/>
      <point x="350" y="-195" type="line"/>
      <point x="253" y="-59"/>
      <point x="205" y="83"/>
    </contour>
  </outline>
</glyph>
<glyph name="plus" format="1">
  <advance width="660"/>
  <unicode hex="002B"/>
  <outline>
    <contour>
      <point x="260" y="525" type="line"/>
      <point x="260" y="55" type="line"/>
      <point x="400" y="55" type="line"/>
      <point x="400" y="525" type="line"/>
    </contour>
    <contour>
      <point x="568" y="357" type="line"/>
      <point x="92" y="357" type="line"/>
      <point x="92" y="223" type="line"/>
      <point x="568" y="223" type="line"/>
    </contour>
  </outline>
</glyph>
<glyph name="comma" format="1">
  <advance width="278"/>
  <unicode hex="002C"/>
  <outline>
    <contour>
      <point x="60" y="-185" type="line"/>
      <point x="148" y="-185" type="line"/>
      <point x="201" y="-49" type="line" smooth="yes"/>
      <point x="222" y="5"/>
      <point x="233" y="36"/>
      <point x="233" y="77" type="curve" smooth="yes"/>
      <point x="233" y="133"/>
      <point x="194" y="172"/>
      <point x="139" y="172" type="curve" smooth="yes"/>
      <point x="84" y="172"/>
      <point x="45" y="133"/>
      <point x="45" y="80" type="curve" smooth="yes"/>
      <point x="45" y="34"/>
      <point x="72" y="4"/>
      <point x="106" y="-7" type="curve"/>
    </contour>
  </outline>
</glyph>
<glyph name="hyphen" format="1">
  <advance width="396"/>
  <unicode hex="002D"/>
  <outline>
    <contour>
      <point x="55" y="338" type="line"/>
      <point x="55" y="217" type="line"/>
      <point x="341" y="217" type="line"/>
      <point x="341" y="338" type="line"/>
    </contour>
  </outline>
</glyph>
<glyph name="zero" format="1">
  <advance width="660"/>
  <unicode hex="0030"/>
  <outline>
    <contour>
      <point x="330" y="-12" type="curve" smooth="yes"/>
      <point x="482" y="-12"/>
      <point x="608" y="108"/>
      <point x="608" y="345" type="curve" smooth="yes"/>
      <point x="608" y="582"/>
      <point x="482" y="702"/>
      <point x="330" y="702" type="curve" smooth="yes"/>
      <point x="178" y="702"/>
      <point x="52" y="582"/>
      <point x="52" y="345" type="curve" smooth="yes"/>
      <point x="52" y="108"/>
      <point x="178" y="-12"/>
    </contour>
    <contour>
      <point x="330" y="131" type="curve" smooth="yes"/>
      <point x="265" y="131"/>
      <point x="216.0" y="193.15037593984965"/>
      <point x="216" y="345" type="curve" smooth="yes"/>
      <point x="216.0" y="496.8496240601503"/>
      <point x="265" y="559"/>
      <point x="330" y="559" type="curve" smooth="yes"/>
      <point x="395" y="559"/>
      <point x="444.0" y="496.8496240601503"/>
      <point x="444" y="345" type="curve" smooth="yes"/>
      <point x="444.0" y="193.15037593984965"/>
      <point x="395" y="131"/>
    </contour>
  </outline>
</glyph>
<glyph name="one" format="1">
  <advance width="660"/>
  <unicode hex="0031"/>
  <outline>
    <contour>
      <point x="105" y="603" type="line"/>
      <point x="153" y="486" type="line"/>
      <point x="351" y="567" type="line"/>
      <point x="317" y="690" type="line"/>
    </contour>
    <contour>
      <point x="117" y="0" type="line"/>
      <point x="563" y="0" type="line"/>
      <point x="563" y="120" type="line"/>
      <point x="117" y="120" type="line"/>
    </contour>
    <contour>
      <point x="264" y="0" type="line"/>
      <point x="424" y="0" type="line"/>
      <point x="424" y="690" type="line"/>
      <point x="317" y="690" type="line"/>
      <point x="264" y="637" type="line"/>
    </contour>
  </outline>
</glyph>
<glyph name="two" format="1">
  <advance width="660"/>
  <unicode hex="0032"/>
  <outline>
    <contour>
      <point x="77" y="0" type="line"/>
      <point x="571" y="0" type="line"/>
      <point x="571" y="140" type="line"/>
      <point x="163" y="140" type="line"/>
      <point x="77" y="105" type="line"/>
    </contour>
    <contour>
      <point x="561" y="493" type="curve"/>
      <point x="561" y="612"/>
      <point x="459" y="702"/>
      <point x="323" y="702" type="curve"/>
      <point x="220" y="702"/>
      <point x="133" y="656"/>
      <point x="66" y="595" type="curve"/>
      <point x="153" y="479" type="line"/>
      <point x="200" y="524"/>
      <point x="252" y="555"/>
      <point x="305" y="555" type="curve"/>
      <point x="366" y="555"/>
      <point x="397" y="518"/>
      <point x="397" y="473" type="curve"/>
      <point x="397" y="432"/>
      <point x="369" y="390"/>
      <point x="301" y="324" type="curve" smooth="yes"/>
      <point x="77" y="105" type="line"/>
      <point x="146" y="0" type="line"/>
      <point x="398" y="222" type="line" smooth="yes"/>
      <point x="514" y="325"/>
      <point x="561" y="399"/>
    </contour>
  </outline>
</glyph>
<glyph name="three" format="1">
  <advance width="660"/>
  <unicode hex="0033"/>
  <outline>
    <contour>
      <point x="58" y="84" type="line"/>
      <point x="125" y="23"/>
      <point x="207" y="-12"/>
      <point x="313" y="-12" type="curve"/>
      <point x="454" y="-12"/>
      <point x="577" y="66"/>
      <point x="577" y="215" type="curve"/>
      <point x="577" y="350"/>
      <point x="469" y="421"/>
      <point x="323" y="421" type="curve"/>
      <point x="254" y="421" type="line"/>
      <point x="201" y="390" type="line"/>
      <point x="201" y="304" type="line"/>
      <point x="290" y="304" type="line" smooth="yes"/>
      <point x="379" y="304"/>
      <point x="418" y="265"/>
      <point x="418" y="215" type="curve"/>
      <point x="418" y="159"/>
      <point x="368" y="128"/>
      <point x="294" y="128" type="curve"/>
      <point x="232" y="128"/>
      <point x="182" y="154"/>
      <point x="141" y="198" type="curve"/>
    </contour>
    <contour>
      <point x="85" y="550" type="line"/>
      <point x="503" y="550" type="line"/>
      <point x="552" y="585" type="line"/>
      <point x="552" y="690" type="line"/>
      <point x="85" y="690" type="line"/>
    </contour>
    <contour>
      <point x="201" y="390" type="line"/>
      <point x="356" y="390" type="line"/>
      <point x="552" y="585" type="line"/>
      <point x="493" y="690" type="line"/>
    </contour>
  </outline>
</glyph>
<glyph name="four" format="1">
  <advance width="660"/>
  <unicode hex="0034"/>
  <outline>
    <contour>
      <point x="361" y="690" type="line"/>
      <point x="361" y="0" type="line"/>
      <point x="521" y="0" type="line"/>
      <point x="521" y="690" type="line"/>
    </contour>
    <contour>
      <point x="318" y="690" type="line"/>
      <point x="64" y="221" type="line"/>
      <point x="143" y="116" type="line"/>
      <point x="448" y="690" type="line"/>
    </contour>
    <contour>
      <point x="64" y="116" type="line"/>
      <point x="612" y="116" type="line"/>
      <point x="612" y="256" type="line"/>
      <point x="110" y="256" type="line"/>
      <point x="64" y="221" type="line"/>
    </contour>
  </outline>
</glyph>
<glyph name="five" format="1">
  <advance width="660"/>
  <unicode hex="0035"/>
  <outline>
    <contour>
      <point x="540" y="690" type="line"/>
      <point x="128" y="690" type="line"/>
      <point x="191" y="550" type="line"/>
      <point x="540" y="550" type="line"/>
    </contour>
    <contour>
      <point x="173" y="262" type="line"/>
      <point x="242" y="336" type="line"/>
      <point x="262" y="690" type="line"/>
      <point x="128" y="690" type="line"/>
      <point x="106" y="307" type="line"/>
    </contour>
    <contour>
      <point x="304" y="315" type="curve"/>
      <point x="387" y="315"/>
      <point x="428" y="272"/>
      <point x="428" y="220" type="curve"/>
      <point x="428" y="161"/>
      <point x="378" y="128"/>
      <point x="304" y="128" type="curve"/>
      <point x="242" y="128"/>
      <point x="192" y="154"/>
      <point x="151" y="198" type="curve"/>
      <point x="68" y="84" type="line"/>
      <point x="135" y="23"/>
      <point x="217" y="-12"/>
      <point x="323" y="-12" type="curve"/>
      <point x="464" y="-12"/>
      <point x="587" y="66"/>
      <point x="587" y="215" type="curve"/>
      <point x="587" y="350"/>
      <point x="479" y="435"/>
      <point x="361" y="435" type="curve"/>
      <point x="280" y="435"/>
      <point x="210" y="390"/>
      <point x="178" y="346" type="curve"/>
      <point x="173" y="262" type="line"/>
      <point x="211" y="295"/>
      <point x="254" y="315"/>
    </contour>
  </outline>
</glyph>
<glyph name="six" format="1">
  <advance width="660"/>
  <unicode hex="0036"/>
  <outline>
    <contour>
      <point x="338" y="-12" type="curve"/>
      <point x="492" y="-12"/>
      <point x="593" y="87"/>
      <point x="593" y="225" type="curve" smooth="yes"/>
      <point x="593" y="360"/>
      <point x="501" y="449"/>
      <point x="377" y="449" type="curve" smooth="yes"/>
      <point x="309" y="449"/>
      <point x="246" y="415"/>
      <point x="214" y="364" type="curve"/>
      <point x="214" y="270" type="line"/>
      <point x="247" y="299"/>
      <point x="297" y="325"/>
      <point x="339" y="325" type="curve"/>
      <point x="398" y="325"/>
      <point x="439" y="285"/>
      <point x="439" y="222" type="curve" smooth="yes"/>
      <point x="439" y="167"/>
      <point x="399" y="123"/>
      <point x="343" y="123" type="curve"/>
      <point x="278" y="123"/>
      <point x="223" y="183"/>
      <point x="223" y="320" type="curve" smooth="yes"/>
      <point x="223" y="499"/>
      <point x="309" y="569"/>
      <point x="389" y="569" type="curve"/>
      <point x="425" y="569"/>
      <point x="459" y="558"/>
      <point x="494" y="529" type="curve"/>
      <point x="563" y="653" type="line"/>
      <point x="513" y="687"/>
      <point x="451" y="702"/>
      <point x="386" y="702" type="curve" smooth="yes"/>
      <point x="217" y="702"/>
      <point x="65" y="573"/>
      <point x="65" y="320" type="curve" smooth="yes"/>
      <point x="65" y="110"/>
      <point x="181" y="-12"/>
    </contour>
  </outline>
</glyph>
<glyph name="seven" format="1">
  <advance width="660"/>
  <unicode hex="0037"/>
  <outline>
    <contour>
      <point x="70" y="540" type="line"/>
      <point x="510" y="540" type="line"/>
      <point x="559" y="585" type="line"/>
      <point x="559" y="690" type="line"/>
      <point x="70" y="690" type="line"/>
    </contour>
    <contour>
      <point x="444" y="690" type="line"/>
      <point x="156" y="0" type="line"/>
      <point x="332" y="0" type="line"/>
      <point x="559" y="585" type="line"/>
    </contour>
  </outline>
</glyph>
<glyph name="nine" format="1">
  <advance width="660"/>
  <unicode hex="0039"/>
  <outline>
    <contour>
      <point x="67" y="465" type="curve" smooth="yes"/>
      <point x="67" y="330"/>
      <point x="159" y="241"/>
      <point x="283" y="241" type="curve" smooth="yes"/>
      <point x="351" y="241"/>
      <point x="414" y="275"/>
      <point x="446" y="326" type="curve"/>
      <point x="446" y="420" type="line"/>
      <point x="413" y="391"/>
      <point x="363" y="365"/>
      <point x="321" y="365" type="curve"/>
      <point x="262" y="365"/>
      <point x="221" y="405"/>
      <point x="221" y="468" type="curve" smooth="yes"/>
      <point x="221" y="523"/>
      <point x="261" y="567"/>
      <point x="317" y="567" type="curve"/>
      <point x="382" y="567"/>
      <point x="437" y="507"/>
      <point x="437" y="370" type="curve" smooth="yes"/>
      <point x="437" y="191"/>
      <point x="351" y="121"/>
      <point x="271" y="121" type="curve"/>
      <point x="235" y="121"/>
      <point x="201" y="132"/>
      <point x="166" y="161" type="curve"/>
      <point x="97" y="37" type="line"/>
      <point x="147" y="3"/>
      <point x="209" y="-12"/>
      <point x="274" y="-12" type="curve" smooth="yes"/>
      <point x="443" y="-12"/>
      <point x="595" y="117"/>
      <point x="595" y="370" type="curve" smooth="yes"/>
      <point x="595" y="580"/>
      <point x="479" y="702"/>
      <point x="322" y="702" type="curve"/>
      <point x="168" y="702"/>
      <point x="67" y="603"/>
    </contour>
  </outline>
</glyph>
<glyph name="less" format="1">
  <advance width="660"/>
  <unicode hex="003C"/>
  <outline>
    <contour>
      <point x="98" y="227" type="line"/>
      <point x="98" y="312" type="line"/>
      <point x="208" y="313" type="line"/>
      <point x="540" y="189" type="line"/>
      <point x="540" y="39" type="line"/>
    </contour>
    <contour>
      <point x="98" y="256" type="line"/>
      <point x="98" y="349" type="line"/>
      <point x="540" y="537" type="line"/>
      <point x="540" y="383" type="line"/>
      <point x="208" y="257" type="line"/>
    </contour>
  </outline>
</glyph>
<glyph name="equal" format="1">
  <advance width="660"/>
  <unicode hex="003D"/>
  <outline>
    <contour>
      <point x="92" y="98" type="line"/>
      <point x="568" y="98" type="line"/>
      <point x="568" y="232" type="line"/>
      <point x="92" y="232" type="line"/>
    </contour>
    <contour>
      <point x="92" y="348" type="line"/>
      <point x="568" y="348" type="line"/>
      <point x="568" y="482" type="line"/>
      <point x="92" y="482" type="line"/>
    </contour>
  </outline>
</glyph>
<glyph name="greater" format="1">
  <advance width="660"/>
  <unicode hex="003E"/>
  <outline>
    <contour>
      <point x="120" y="537" type="line"/>
      <point x="562" y="349" type="line"/>
      <point x="562" y="256" type="line"/>
      <point x="452" y="257" type="line"/>
      <point x="120" y="383" type="line"/>
    </contour>
    <contour>
      <point x="120" y="39" type="line"/>
      <point x="120" y="189" type="line"/>
      <point x="452" y="313" type="line"/>
      <point x="562" y="312" type="line"/>
      <point x="562" y="227" type="line"/>
    </contour>
  </outline>
</glyph>
<glyph name="question" format="1">
  <advance width="518"/>
  <unicode hex="003F"/>
  <outline>
    <contour>
      <point x="10" y="595" type="curve"/>
      <point x="98" y="484" type="line"/>
      <point x="140" y="534"/>
      <point x="178" y="555"/>
      <point x="225" y="555" type="curve"/>
      <point x="273" y="555"/>
      <point x="299" y="527"/>
      <point x="299" y="497" type="curve"/>
      <point x="299" y="474"/>
      <point x="286" y="444"/>
      <point x="226" y="402" type="curve" smooth="yes"/>
      <point x="193" y="379"/>
      <point x="178" y="347"/>
      <point x="182" y="300" type="curve" smooth="yes"/>
      <point x="187" y="245" type="line"/>
      <point x="306" y="245" type="line"/>
      <point x="308" y="272" type="line" smooth="yes"/>
      <point x="309" y="291"/>
      <point x="317" y="308"/>
      <point x="334" y="319" type="curve" smooth="yes"/>
      <point x="437" y="390"/>
      <point x="463" y="443"/>
      <point x="463" y="513" type="curve"/>
      <point x="463" y="625"/>
      <point x="374" y="702"/>
      <point x="245" y="702" type="curve"/>
      <point x="154" y="702"/>
      <point x="67" y="656"/>
    </contour>
    <component base="period" xOffset="108"/>
  </outline>
</glyph>
<glyph name="D" format="1">
  <advance width="724"/>
  <unicode hex="0044"/>
  <outline>
    <contour>
      <point x="85" y="690" type="line"/>
      <point x="85" y="0" type="line"/>
      <point x="245" y="0" type="line"/>
      <point x="245" y="690" type="line"/>
    </contour>
    <contour>
      <point x="332" y="140" type="curve" smooth="yes"/>
      <point x="159" y="140" type="line"/>
      <point x="159" y="0" type="line"/>
      <point x="347" y="0" type="line" smooth="yes"/>
      <point x="534" y="0"/>
      <point x="679" y="128"/>
      <point x="679" y="345" type="curve" smooth="yes"/>
      <point x="679" y="562"/>
      <point x="534" y="690"/>
      <point x="347" y="690" type="curve" smooth="yes"/>
      <point x="159" y="690" type="line"/>
      <point x="159" y="550" type="line"/>
      <point x="332" y="550" type="line" smooth="yes"/>
      <point x="442" y="550"/>
      <point x="516.0" y="482.0"/>
      <point x="516" y="345" type="curve" smooth="yes"/>
      <point x="516.0" y="208.0"/>
      <point x="442" y="140"/>
    </contour>
  </outline>
</glyph>
<glyph name="F" format="1">
  <advance width="595"/>
  <unicode hex="0046"/>
  <outline>
    <contour>
      <point x="85" y="0" type="line"/>
      <point x="245" y="0" type="line"/>
      <point x="245" y="690" type="line"/>
      <point x="85" y="690" type="line"/>
    </contour>
    <contour>
      <point x="159" y="247" type="line"/>
      <point x="515" y="247" type="line"/>
      <point x="515" y="387" type="line"/>
      <point x="159" y="387" type="line"/>
    </contour>
    <contour>
      <point x="159" y="550" type="line"/>
      <point x="555" y="550" type="line"/>
      <point x="555" y="690" type="line"/>
      <point x="159" y="690" type="line"/>
    </contour>
  </outline>
</glyph>
<glyph name="G" format="1">
  <advance width="703"/>
  <unicode hex="0047"/>
  <outline>
    <contour>
      <point x="489" y="382" type="line"/>
      <point x="489" y="70" type="line"/>
      <point x="643" y="81" type="line"/>
      <point x="643" y="382" type="line"/>
    </contour>
    <contour>
      <point x="575" y="382" type="line"/>
      <point x="359" y="382" type="line"/>
      <point x="359" y="249" type="line"/>
      <point x="575" y="249" type="line"/>
    </contour>
    <contour>
      <point x="208" y="345" type="curve" smooth="yes"/>
      <point x="208" y="483"/>
      <point x="289" y="554"/>
      <point x="391" y="554" type="curve"/>
      <point x="448" y="554"/>
      <point x="499" y="534"/>
      <point x="547" y="501" type="curve"/>
      <point x="623" y="637" type="line"/>
      <point x="547" y="681"/>
      <point x="474" y="702"/>
      <point x="387" y="702" type="curve" smooth="yes"/>
      <point x="204" y="702"/>
      <point x="45" y="568"/>
      <point x="45" y="345" type="curve" smooth="yes"/>
      <point x="45" y="122"/>
      <point x="204" y="-12"/>
      <point x="383" y="-12" type="curve"/>
      <point x="479" y="-12"/>
      <point x="562" y="19"/>
      <point x="643" y="81" type="curve"/>
      <point x="489" y="149" type="line"/>
      <point x="455" y="134"/>
      <point x="418" y="128"/>
      <point x="390" y="128" type="curve"/>
      <point x="286" y="128"/>
      <point x="208" y="207"/>
    </contour>
  </outline>
</glyph>
<glyph name="I" format="1">
  <advance width="450"/>
  <unicode hex="0049"/>
  <outline>
    <contour>
      <point x="145" y="690" type="line"/>
      <point x="145" y="0" type="line"/>
      <point x="305" y="0" type="line"/>
      <point x="305" y="690" type="line"/>
    </contour>
    <contour>
      <point x="395" y="690" type="line"/>
      <point x="55" y="690" type="line"/>
      <point x="55" y="570" type="line"/>
      <point x="395" y="570" type="line"/>
    </contour>
    <contour>
      <point x="395" y="120" type="line"/>
      <point x="55" y="120" type="line"/>
      <point x="55" y="0" type="line"/>
      <point x="395" y="0" type="line"/>
    </contour>
    <contour>
      <point x="225" y="690" type="move" name="top"/>
    </contour>
  </outline>
</glyph>
<glyph name="J" format="1">
  <advance width="569"/>
  <unicode hex="004A"/>
  <outline>
    <contour>
      <point x="338" y="265" type="line" smooth="yes"/>
      <point x="338" y="177"/>
      <point x="291" y="131"/>
      <point x="218" y="131" type="curve"/>
      <point x="173" y="131"/>
      <point x="134" y="154"/>
      <point x="111" y="186" type="curve"/>
      <point x="15" y="74" type="line"/>
      <point x="68" y="21"/>
      <point x="137" y="-12"/>
      <point x="223" y="-12" type="curve"/>
      <point x="372" y="-12"/>
      <point x="494" y="80"/>
      <point x="494" y="245" type="curve" smooth="yes"/>
      <point x="494" y="690" type="line"/>
      <point x="338" y="690" type="line"/>
    </contour>
    <contour>
      <point x="440" y="690" type="line"/>
      <point x="170" y="690" type="line"/>
      <point x="170" y="570" type="line"/>
      <point x="440" y="570" type="line"/>
    </contour>
  </outline>
</glyph>
<glyph name="K" format="1">
  <advance width="675"/>
  <unicode hex="004B"/>
  <outline>
    <contour>
      <point x="85" y="690" type="line"/>
      <point x="85" y="0" type="line"/>
      <point x="245" y="0" type="line"/>
      <point x="245" y="690" type="line"/>
    </contour>
    <contour>
      <point x="295" y="292" type="line"/>
      <point x="481" y="0" type="line"/>
      <point x="675" y="0" type="line"/>
      <point x="398" y="408" type="line"/>
    </contour>
    <contour>
      <point x="189" y="331" type="line"/>
      <point x="189" y="128" type="line"/>
      <point x="662" y="690" type="line"/>
      <point x="463" y="690" type="line"/>
    </contour>
  </outline>
</glyph>
<glyph name="L" format="1">
  <advance width="590"/>
  <unicode hex="004C"/>
  <outline>
    <contour>
      <point x="85" y="0" type="line"/>
      <point x="245" y="0" type="line"/>
      <point x="245" y="690" type="line"/>
      <point x="85" y="690" type="line"/>
    </contour>
    <contour>
      <point x="555" y="0" type="line"/>
      <point x="555" y="140" type="line"/>
      <point x="159" y="140" type="line"/>
      <point x="159" y="0" type="line"/>
    </contour>
  </outline>
</glyph>
<glyph name="N" format="1">
  <advance width="759"/>
  <unicode hex="004E"/>
  <outline>
    <contour>
      <point x="85" y="690" type="line"/>
      <point x="85" y="0" type="line"/>
      <point x="229" y="0" type="line"/>
      <point x="229" y="690" type="line"/>
    </contour>
    <contour>
      <point x="530" y="690" type="line"/>
      <point x="530" y="0" type="line"/>
      <point x="674" y="0" type="line"/>
      <point x="674" y="690" type="line"/>
    </contour>
    <contour>
      <point x="629" y="0" type="line"/>
      <point x="290" y="690" type="line"/>
      <point x="141" y="690" type="line"/>
      <point x="480" y="0" type="line"/>
    </contour>
    <contour>
      <point x="397" y="690" type="move" name="top"/>
    </contour>
  </outline>
</glyph>
<glyph name="O" format="1">
  <advance width="744"/>
  <unicode hex="004F"/>
  <outline>
    <contour>
      <point x="372" y="-12" type="curve" smooth="yes"/>
      <point x="552" y="-12"/>
      <point x="699" y="122"/>
      <point x="699" y="345" type="curve" smooth="yes"/>
      <point x="699" y="568"/>
      <point x="552" y="702"/>
      <point x="372" y="702" type="curve" smooth="yes"/>
      <point x="192" y="702"/>
      <point x="45" y="568"/>
      <point x="45" y="345" type="curve" smooth="yes"/>
      <point x="45" y="122"/>
      <point x="192" y="-12"/>
    </contour>
    <contour>
      <point x="372" y="131" type="curve" smooth="yes"/>
      <point x="278" y="131"/>
      <point x="208" y="201"/>
      <point x="208" y="345" type="curve" smooth="yes"/>
      <point x="208" y="489"/>
      <point x="278" y="559"/>
      <point x="372" y="559" type="curve" smooth="yes"/>
      <point x="466" y="559"/>
      <point x="536" y="489"/>
      <point x="536" y="345" type="curve" smooth="yes"/>
      <point x="536" y="201"/>
      <point x="466" y="131"/>
    </contour>
    <contour>
      <point x="372" y="690" type="move" name="top"/>
    </contour>
  </outline>
</glyph>
<glyph name="S" format="1">
  <advance width="638"/>
  <unicode hex="0053"/>
  <outline>
    <contour>
      <point x="231" y="513" type="curve"/>
      <point x="231" y="541"/>
      <point x="261" y="566"/>
      <point x="317" y="566" type="curve"/>
      <point x="386" y="566"/>
      <point x="453" y="539"/>
      <point x="508" y="500" type="curve"/>
      <point x="579" y="627" type="line"/>
      <point x="518" y="669"/>
      <point x="421" y="702"/>
      <point x="330" y="702" type="curve"/>
      <point x="159" y="702"/>
      <point x="70" y="610"/>
      <point x="70" y="500" type="curve"/>
      <point x="70" y="409"/>
      <point x="135" y="330"/>
      <point x="299" y="277" type="curve" smooth="yes"/>
      <point x="404" y="243"/>
      <point x="428" y="212"/>
      <point x="428" y="184" type="curve"/>
      <point x="428" y="152"/>
      <point x="391" y="126"/>
      <point x="326" y="126" type="curve"/>
      <point x="253" y="126"/>
      <point x="170" y="159"/>
      <point x="111" y="207" type="curve"/>
      <point x="35" y="74" type="line"/>
      <point x="120" y="20"/>
      <point x="215" y="-12"/>
      <point x="309" y="-12" type="curve"/>
      <point x="500" y="-12"/>
      <point x="593" y="85"/>
      <point x="593" y="195" type="curve"/>
      <point x="593" y="296"/>
      <point x="526" y="370"/>
      <point x="356" y="426" type="curve" smooth="yes"/>
      <point x="262" y="457"/>
      <point x="231" y="482"/>
    </contour>
  </outline>
</glyph>
<glyph name="T" format="1">
  <advance width="586"/>
  <unicode hex="0054"/>
  <outline>
    <contour>
      <point x="25" y="550" type="line"/>
      <point x="561" y="550" type="line"/>
      <point x="561" y="690" type="line"/>
      <point x="25" y="690" type="line"/>
    </contour>
    <contour>
      <point x="213" y="0" type="line"/>
      <point x="373" y="0" type="line"/>
      <point x="373" y="690" type="line"/>
      <point x="213" y="690" type="line"/>
    </contour>
  </outline>
</glyph>
<glyph name="U" format="1">
  <advance width="724"/>
  <unicode hex="0055"/>
  <outline>
    <contour>
      <point x="75" y="275" type="line" smooth="yes"/>
      <point x="75" y="91"/>
      <point x="201" y="-12"/>
      <point x="362" y="-12" type="curve" smooth="yes"/>
      <point x="523" y="-12"/>
      <point x="649" y="91"/>
      <point x="649" y="275" type="curve" smooth="yes"/>
      <point x="649" y="690" type="line"/>
      <point x="493" y="690" type="line"/>
      <point x="493" y="295" type="line" smooth="yes"/>
      <point x="493" y="181"/>
      <point x="438" y="131"/>
      <point x="364" y="131" type="curve" smooth="yes"/>
      <point x="290" y="131"/>
      <point x="235" y="181"/>
      <point x="235" y="295" type="curve" smooth="yes"/>
      <point x="235" y="690" type="line"/>
      <point x="75" y="690" type="line"/>
    </contour>
    <contour>
      <point x="364" y="690" type="move" name="top"/>
    </contour>
  </outline>
</glyph>
<glyph name="X" format="1">
  <advance width="624.0"/>
  <unicode hex="0058"/>
  <outline>
    <contour>
      <point x="199.0" y="690.0" type="line"/>
      <point x="15.0" y="690.0" type="line"/>
      <point x="269" y="282" type="line"/>
      <point x="435.0" y="0.0" type="line"/>
      <point x="619.0" y="0.0" type="line"/>
      <point x="357" y="421" type="line"/>
    </contour>
    <contour>
      <point x="609.0" y="690.0" type="line"/>
      <point x="430" y="690" type="line"/>
      <point x="301" y="458" type="line"/>
      <point x="244" y="384" type="line"/>
      <point x="5.0" y="0.0" type="line"/>
      <point x="184" y="0" type="line"/>
      <point x="324" y="250" type="line"/>
      <point x="381" y="323" type="line"/>
    </contour>
  </outline>
</glyph>
<glyph name="Y" format="1">
  <advance width="656"/>
  <unicode hex="0059"/>
  <outline>
    <contour>
      <point x="248" y="290" type="line"/>
      <point x="248" y="0" type="line"/>
      <point x="408" y="0" type="line"/>
      <point x="408" y="290" type="line"/>
    </contour>
    <contour>
      <point x="0" y="690" type="line"/>
      <point x="261" y="260" type="line"/>
      <point x="343" y="260" type="line"/>
      <point x="347" y="397" type="line"/>
      <point x="184" y="690" type="line"/>
    </contour>
    <contour>
      <point x="656" y="690" type="line"/>
      <point x="476" y="690" type="line"/>
      <point x="313" y="397" type="line"/>
      <point x="321" y="260" type="line"/>
      <point x="395" y="260" type="line"/>
    </contour>
    <contour>
      <point x="329" y="690" type="move" name="top"/>
    </contour>
  </outline>
</glyph>
<glyph name="bracketright" format="1">
  <advance width="320"/>
  <unicode hex="005D"/>
  <outline>
    <contour>
      <point x="235" y="830" type="line"/>
      <point x="95" y="830" type="line"/>
      <point x="95" y="-295" type="line"/>
      <point x="235" y="-295" type="line"/>
    </contour>
    <contour>
      <point x="-50" y="710" type="line"/>
      <point x="235" y="710" type="line"/>
      <point x="235" y="830" type="line"/>
      <point x="-50" y="830" type="line"/>
    </contour>
    <contour>
      <point x="-50" y="-295" type="line"/>
      <point x="235" y="-295" type="line"/>
      <point x="235" y="-175" type="line"/>
      <point x="-50" y="-175" type="line"/>
    </contour>
  </outline>
</glyph>
<glyph name="asciicircum" format="1">
  <advance width="660"/>
  <unicode hex="005E"/>
  <outline>
    <contour>
      <point x="590" y="248" type="line"/>
      <point x="436" y="248" type="line"/>
      <point x="310" y="580" type="line"/>
      <point x="309" y="690" type="line"/>
      <point x="402" y="690" type="line"/>
    </contour>
    <contour>
      <point x="92" y="248" type="line"/>
      <point x="280" y="690" type="line"/>
      <point x="365" y="690" type="line"/>
      <point x="366" y="580" type="line"/>
      <point x="242" y="248" type="line"/>
    </contour>
  </outline>
</glyph>
<glyph name="underscore" format="1">
  <advance width="456"/>
  <unicode hex="005F"/>
  <outline>
    <contour>
      <point x="0" y="-121" type="line"/>
      <point x="456" y="-121" type="line"/>
      <point x="456" y="0" type="line"/>
      <point x="0" y="0" type="line"/>
    </contour>
  </outline>
</glyph>
<glyph name="b" format="1">
  <advance width="610"/>
  <unicode hex="0062"/>
  <outline>
    <contour>
      <point x="60" y="0" type="line"/>
      <point x="206" y="0" type="line"/>
      <point x="224" y="95" type="line"/>
      <point x="225" y="132" type="line"/>
      <point x="225" y="735" type="line"/>
      <point x="75" y="715" type="line"/>
      <point x="75" y="125" type="line"/>
      <point x="75" y="97"/>
      <point x="73" y="78"/>
      <point x="68" y="49" type="curve" smooth="yes"/>
    </contour>
    <contour>
      <point x="173" y="222" type="line"/>
      <point x="173" y="72"/>
      <point x="247" y="-12"/>
      <point x="351" y="-12" type="curve" smooth="yes"/>
      <point x="477" y="-12"/>
      <point x="572" y="84"/>
      <point x="572" y="261" type="curve" smooth="yes"/>
      <point x="572" y="430"/>
      <point x="481" y="537"/>
      <point x="375" y="537" type="curve" smooth="yes"/>
      <point x="305" y="537"/>
      <point x="250" y="498"/>
      <point x="210" y="442" type="curve"/>
      <point x="210" y="346" type="line"/>
      <point x="241" y="380"/>
      <point x="285" y="401"/>
      <point x="325" y="401" type="curve" smooth="yes"/>
      <point x="383" y="401"/>
      <point x="422" y="353"/>
      <point x="422" y="253" type="curve" smooth="yes"/>
      <point x="422" y="159"/>
      <point x="375" y="106"/>
      <point x="311" y="106" type="curve" smooth="yes"/>
      <point x="258" y="106"/>
      <point x="225" y="144"/>
      <point x="225" y="227" type="curve"/>
    </contour>
  </outline>
</glyph>
<glyph name="d" format="1">
  <advance width="610"/>
  <unicode hex="0064"/>
  <outline>
    <contour>
      <point x="38" y="264" type="curve" smooth="yes"/>
      <point x="38" y="95"/>
      <point x="129" y="-12"/>
      <point x="235" y="-12" type="curve" smooth="yes"/>
      <point x="305" y="-12"/>
      <point x="360" y="27"/>
      <point x="400" y="83" type="curve"/>
      <point x="400" y="182" type="line"/>
      <point x="369" y="145"/>
      <point x="325" y="124"/>
      <point x="285" y="124" type="curve" smooth="yes"/>
      <point x="227" y="124"/>
      <point x="188" y="172"/>
      <point x="188" y="272" type="curve" smooth="yes"/>
      <point x="188" y="366"/>
      <point x="235" y="419"/>
      <point x="299" y="419" type="curve" smooth="yes"/>
      <point x="352" y="419"/>
      <point x="385" y="381"/>
      <point x="385" y="298" type="curve"/>
      <point x="437" y="303" type="line"/>
      <point x="437" y="445"/>
      <point x="363" y="537"/>
      <point x="259" y="537" type="curve" smooth="yes"/>
      <point x="133" y="537"/>
      <point x="38" y="441"/>
    </contour>
    <contour>
      <point x="404" y="0" type="line"/>
      <point x="550" y="0" type="line"/>
      <point x="542" y="49" type="line" smooth="yes"/>
      <point x="537" y="78"/>
      <point x="535" y="97"/>
      <point x="535" y="125" type="curve" smooth="yes"/>
      <point x="535" y="735" type="line"/>
      <point x="385" y="715" type="line"/>
      <point x="385" y="132" type="line"/>
      <point x="386" y="95" type="line"/>
    </contour>
  </outline>
</glyph>
<glyph name="f" format="1">
  <advance width="391"/>
  <unicode hex="0066"/>
  <outline>
    <contour>
      <point x="15" y="410" type="line"/>
      <point x="391" y="410" type="line"/>
      <point x="391" y="525" type="line"/>
      <point x="15" y="525" type="line"/>
    </contour>
    <contour>
      <point x="105" y="0" type="line"/>
      <point x="255" y="0" type="line"/>
      <point x="255" y="525" type="line" smooth="yes"/>
      <point x="255" y="581"/>
      <point x="276" y="610"/>
      <point x="326" y="610" type="curve"/>
      <point x="346" y="610"/>
      <point x="369" y="606"/>
      <point x="390" y="600" type="curve"/>
      <point x="406" y="713" type="line"/>
      <point x="373" y="725"/>
      <point x="330" y="732"/>
      <point x="298" y="732" type="curve"/>
      <point x="177" y="732"/>
      <point x="105" y="653"/>
      <point x="105" y="523" type="curve" smooth="yes"/>
    </contour>
  </outline>
</glyph>
<glyph name="g" format="1">
  <advance width="610"/>
  <unicode hex="0067"/>
  <outline>
    <contour>
      <point x="188" y="287" type="curve" smooth="yes"/>
      <point x="188.0" y="371.4081632653061"/>
      <point x="235.0" y="419.0"/>
      <point x="299" y="419" type="curve" smooth="yes"/>
      <point x="352" y="419"/>
      <point x="385" y="381"/>
      <point x="385" y="298" type="curve"/>
      <point x="437" y="303" type="line"/>
      <point x="437" y="453"/>
      <point x="363" y="537"/>
      <point x="255" y="537" type="curve"/>
      <point x="133" y="537"/>
      <point x="38.0" y="446.27472527472526"/>
      <point x="38" y="279" type="curve" smooth="yes"/>
      <point x="38.0" y="125.0"/>
      <point x="124" y="30"/>
      <point x="240" y="30" type="curve"/>
      <point x="302" y="30"/>
      <point x="360" y="57"/>
      <point x="400" y="113" type="curve"/>
      <point x="400" y="205" type="line"/>
      <point x="369" y="177"/>
      <point x="325" y="161"/>
      <point x="285" y="161" type="curve" smooth="yes"/>
      <point x="227" y="161"/>
      <point x="188.0" y="204.0"/>
    </contour>
    <contour>
      <point x="385" y="72" type="line" smooth="yes"/>
      <point x="385" y="-25"/>
      <point x="334.0" y="-68.0"/>
      <point x="247" y="-68" type="curve" smooth="yes"/>
      <point x="197" y="-68"/>
      <point x="146" y="-53"/>
      <point x="106" y="-33" type="curve"/>
      <point x="70" y="-157" type="line"/>
      <point x="119" y="-178"/>
      <point x="180" y="-197"/>
      <point x="258" y="-197" type="curve" smooth="yes"/>
      <point x="417" y="-197"/>
      <point x="535" y="-97"/>
      <point x="535" y="74" type="curve" smooth="yes"/>
      <point x="535" y="400" type="line"/>
      <point x="535" y="428"/>
      <point x="537" y="447"/>
      <point x="542" y="476" type="curve" smooth="yes"/>
      <point x="550" y="525" type="line"/>
      <point x="404" y="525" type="line"/>
      <point x="386" y="430" type="line"/>
      <point x="385" y="393" type="line"/>
    </contour>
  </outline>
</glyph>
<glyph name="h" format="1">
  <advance width="634"/>
  <unicode hex="0068"/>
  <outline>
    <contour>
      <point x="75" y="0" type="line"/>
      <point x="225" y="0" type="line"/>
      <point x="225" y="735" type="line"/>
      <point x="75" y="715" type="line"/>
    </contour>
    <contour>
      <point x="210" y="346" type="line"/>
      <point x="241" y="381"/>
      <point x="285" y="399"/>
      <point x="325" y="399" type="curve"/>
      <point x="377" y="399"/>
      <point x="414" y="369"/>
      <point x="414" y="303" type="curve" smooth="yes"/>
      <point x="414" y="0" type="line"/>
      <point x="564" y="0" type="line"/>
      <point x="564" y="326" type="line" smooth="yes"/>
      <point x="564" y="467"/>
      <point x="473" y="537"/>
      <point x="380" y="537" type="curve"/>
      <point x="308" y="537"/>
      <point x="251" y="498"/>
      <point x="210" y="442" type="curve"/>
    </contour>
  </outline>
</glyph>
<glyph name="i" format="1">
  <advance width="300"/>
  <unicode hex="0069"/>
  <outline>
    <contour>
      <point x="58" y="676" type="curve" smooth="yes"/>
      <point x="58" y="626"/>
      <point x="96" y="585"/>
      <point x="150" y="585" type="curve" smooth="yes"/>
      <point x="204" y="585"/>
      <point x="242" y="626"/>
      <point x="242" y="676" type="curve" smooth="yes"/>
      <point x="242" y="726"/>
      <point x="204" y="767"/>
      <point x="150" y="767" type="curve" smooth="yes"/>
      <point x="96" y="767"/>
      <point x="58" y="726"/>
    </contour>
    <contour>
      <point x="75" y="0" type="line"/>
      <point x="225" y="0" type="line"/>
      <point x="225" y="525" type="line"/>
      <point x="75" y="525" type="line"/>
    </contour>
  </outline>
</glyph>
<glyph name="j" format="1">
  <advance width="300"/>
  <unicode hex="006A"/>
  <outline>
    <contour>
      <point x="225" y="525" type="line"/>
      <point x="75" y="525" type="line"/>
      <point x="75" y="16" type="line" smooth="yes"/>
      <point x="75" y="-46"/>
      <point x="49" y="-66"/>
      <point x="6" y="-66" type="curve"/>
      <point x="-10" y="-66"/>
      <point x="-24" y="-63"/>
      <point x="-45" y="-57" type="curve"/>
      <point x="-61" y="-181" type="line"/>
      <point x="-34" y="-190"/>
      <point x="5" y="-197"/>
      <point x="36" y="-197" type="curve"/>
      <point x="151" y="-197"/>
      <point x="225" y="-129"/>
      <point x="225" y="8" type="curve" smooth="yes"/>
    </contour>
    <contour>
      <point x="150" y="767" type="curve" smooth="yes"/>
      <point x="96" y="767"/>
      <point x="58" y="726"/>
      <point x="58" y="676" type="curve" smooth="yes"/>
      <point x="58" y="626"/>
      <point x="96" y="585"/>
      <point x="150" y="585" type="curve" smooth="yes"/>
      <point x="204" y="585"/>
      <point x="242" y="626"/>
      <point x="242" y="676" type="curve" smooth="yes"/>
      <point x="242" y="726"/>
      <point x="204" y="767"/>
    </contour>
  </outline>
</glyph>
<glyph name="k" format="1">
  <advance width="575"/>
  <unicode hex="006B"/>
  <outline>
    <contour>
      <point x="75" y="715" type="line"/>
      <point x="75" y="0" type="line"/>
      <point x="225" y="0" type="line"/>
      <point x="225" y="735" type="line"/>
    </contour>
    <contour>
      <point x="243" y="269" type="line"/>
      <point x="404" y="0" type="line"/>
      <point x="575" y="0" type="line"/>
      <point x="338" y="361" type="line"/>
    </contour>
    <contour>
      <point x="169" y="273" type="line"/>
      <point x="169" y="101" type="line"/>
      <point x="562" y="525" type="line"/>
      <point x="376" y="525" type="line"/>
    </contour>
  </outline>
</glyph>
<glyph name="l" format="1">
  <advance width="300"/>
  <unicode hex="006C"/>
  <outline>
    <contour>
      <point x="75" y="715" type="line"/>
      <point x="75" y="0" type="line"/>
      <point x="225" y="0" type="line"/>
      <point x="225" y="735" type="line"/>
    </contour>
  </outline>
</glyph>
<glyph name="m" format="1">
  <advance width="935"/>
  <unicode hex="006D"/>
  <outline>
    <contour>
      <point x="75" y="400" type="curve" smooth="yes"/>
      <point x="75" y="0" type="line"/>
      <point x="225" y="0" type="line"/>
      <point x="225" y="393" type="line"/>
      <point x="224" y="430" type="line"/>
      <point x="206" y="525" type="line"/>
      <point x="60" y="525" type="line"/>
      <point x="68" y="476" type="line" smooth="yes"/>
      <point x="73" y="447"/>
      <point x="75" y="428"/>
    </contour>
    <contour>
      <point x="210" y="343" type="line"/>
      <point x="238" y="380"/>
      <point x="281" y="399"/>
      <point x="318" y="399" type="curve" smooth="yes"/>
      <point x="364" y="399"/>
      <point x="395" y="371"/>
      <point x="395" y="308" type="curve" smooth="yes"/>
      <point x="395" y="0" type="line"/>
      <point x="545" y="0" type="line"/>
      <point x="545" y="331" type="line" smooth="yes"/>
      <point x="545" y="469"/>
      <point x="466" y="537"/>
      <point x="375" y="537" type="curve" smooth="yes"/>
      <point x="307" y="537"/>
      <point x="249" y="498"/>
      <point x="210" y="442" type="curve"/>
    </contour>
    <contour>
      <point x="530" y="343" type="line"/>
      <point x="558" y="380"/>
      <point x="601" y="399"/>
      <point x="638" y="399" type="curve" smooth="yes"/>
      <point x="684" y="399"/>
      <point x="715" y="371"/>
      <point x="715" y="308" type="curve" smooth="yes"/>
      <point x="715" y="0" type="line"/>
      <point x="865" y="0" type="line"/>
      <point x="865" y="331" type="line" smooth="yes"/>
      <point x="865" y="469"/>
      <point x="784" y="537"/>
      <point x="690" y="537" type="curve"/>
      <point x="617" y="537"/>
      <point x="555" y="496"/>
      <point x="516" y="440" type="curve"/>
    </contour>
  </outline>
</glyph>
<glyph name="n" format="1">
  <advance width="634"/>
  <unicode hex="006E"/>
  <outline>
    <contour>
      <point x="75" y="400" type="curve" smooth="yes"/>
      <point x="75" y="0" type="line"/>
      <point x="225" y="0" type="line"/>
      <point x="225" y="393" type="line"/>
      <point x="224" y="430" type="line"/>
      <point x="206" y="525" type="line"/>
      <point x="60" y="525" type="line"/>
      <point x="68" y="476" type="line" smooth="yes"/>
      <point x="73" y="447"/>
      <point x="75" y="428"/>
    </contour>
    <contour>
      <point x="210" y="343" type="line"/>
      <point x="241" y="380"/>
      <point x="285" y="399"/>
      <point x="325" y="399" type="curve"/>
      <point x="377" y="399"/>
      <point x="414" y="369"/>
      <point x="414" y="303" type="curve" smooth="yes"/>
      <point x="414" y="0" type="line"/>
      <point x="564" y="0" type="line"/>
      <point x="564" y="326" type="line" smooth="yes"/>
      <point x="564" y="467"/>
      <point x="473" y="537"/>
      <point x="380" y="537" type="curve"/>
      <point x="308" y="537"/>
      <point x="251" y="498"/>
      <point x="210" y="442" type="curve"/>
    </contour>
    <contour>
      <point x="325" y="525" type="move" name="top"/>
    </contour>
  </outline>
</glyph>
<glyph name="r" format="1">
  <advance width="409"/>
  <unicode hex="0072"/>
  <outline>
    <contour>
      <point x="75" y="400" type="curve" smooth="yes"/>
      <point x="75" y="0" type="line"/>
      <point x="225" y="0" type="line"/>
      <point x="225" y="378" type="line"/>
      <point x="224" y="425" type="line"/>
      <point x="206" y="525" type="line"/>
      <point x="60" y="525" type="line"/>
      <point x="68" y="476" type="line" smooth="yes"/>
      <point x="73" y="447"/>
      <point x="75" y="428"/>
    </contour>
    <contour>
      <point x="387" y="537" type="line"/>
      <point x="315" y="537"/>
      <point x="251" y="494"/>
      <point x="210" y="422" type="curve"/>
      <point x="210" y="328" type="line"/>
      <point x="262" y="374"/>
      <point x="308" y="389"/>
      <point x="387" y="389" type="curve"/>
    </contour>
  </outline>
</glyph>
<glyph name="t" format="1">
  <advance width="432"/>
  <unicode hex="0074"/>
  <outline>
    <contour>
      <point x="105" y="641" type="line"/>
      <point x="105" y="182" type="line" smooth="yes"/>
      <point x="105" y="52"/>
      <point x="175" y="-12"/>
      <point x="290" y="-12" type="curve"/>
      <point x="328" y="-12"/>
      <point x="369" y="-4"/>
      <point x="402" y="8" type="curve"/>
      <point x="386" y="137" type="line"/>
      <point x="363" y="129"/>
      <point x="340" y="124"/>
      <point x="322" y="124" type="curve"/>
      <point x="278" y="124"/>
      <point x="255" y="144"/>
      <point x="255" y="201" type="curve" smooth="yes"/>
      <point x="255" y="661" type="line"/>
    </contour>
    <contour>
      <point x="15" y="410" type="line"/>
      <point x="394" y="410" type="line"/>
      <point x="394" y="525" type="line"/>
      <point x="15" y="525" type="line"/>
    </contour>
  </outline>
</glyph>
<glyph name="u" format="1">
  <advance width="628"/>
  <unicode hex="0075"/>
  <outline>
    <contour>
      <point x="418" y="182" type="line"/>
      <point x="387" y="145"/>
      <point x="346" y="126"/>
      <point x="306" y="126" type="curve"/>
      <point x="254" y="126"/>
      <point x="220" y="156"/>
      <point x="220" y="222" type="curve" smooth="yes"/>
      <point x="220" y="525" type="line"/>
      <point x="70" y="525" type="line"/>
      <point x="70" y="199" type="line" smooth="yes"/>
      <point x="70" y="58"/>
      <point x="158" y="-12"/>
      <point x="251" y="-12" type="curve"/>
      <point x="323" y="-12"/>
      <point x="377" y="27"/>
      <point x="418" y="83" type="curve"/>
    </contour>
    <contour>
      <point x="553" y="125" type="curve"/>
      <point x="553" y="525" type="line"/>
      <point x="403" y="525" type="line"/>
      <point x="403" y="132" type="line"/>
      <point x="404" y="95" type="line"/>
      <point x="422" y="0" type="line"/>
      <point x="568" y="0" type="line"/>
      <point x="560" y="49" type="line" smooth="yes"/>
      <point x="555" y="78"/>
      <point x="553" y="97"/>
    </contour>
    <contour>
      <point x="312" y="525" type="move" name="top"/>
    </contour>
  </outline>
</glyph>
<glyph name="v" format="1">
  <advance width="530"/>
  <unicode hex="0076"/>
  <outline>
    <contour>
      <point x="0" y="525" type="line"/>
      <point x="204" y="0" type="line"/>
      <point x="297" y="0" type="line"/>
      <point x="296" y="110" type="line"/>
      <point x="164" y="525" type="line"/>
    </contour>
    <contour>
      <point x="530" y="525" type="line"/>
      <point x="370" y="525" type="line"/>
      <point x="240" y="110" type="line"/>
      <point x="241" y="0" type="line"/>
      <point x="326" y="0" type="line"/>
    </contour>
  </outline>
</glyph>
<glyph name="w" format="1">
  <advance width="820"/>
  <unicode hex="0077"/>
  <outline>
    <contour>
      <point x="20" y="525" type="line"/>
      <point x="194" y="0" type="line"/>
      <point x="287" y="0" type="line"/>
      <point x="286" y="107" type="line"/>
      <point x="180" y="525" type="line"/>
    </contour>
    <contour>
      <point x="436" y="525" type="line"/>
      <point x="350" y="525" type="line"/>
      <point x="230" y="107" type="line"/>
      <point x="231" y="0" type="line"/>
      <point x="316" y="0" type="line"/>
      <point x="436" y="362" type="line"/>
    </contour>
    <contour>
      <point x="384" y="525" type="line"/>
      <point x="384" y="362" type="line"/>
      <point x="504" y="0" type="line"/>
      <point x="597" y="0" type="line"/>
      <point x="596" y="107" type="line"/>
      <point x="474" y="525" type="line"/>
    </contour>
    <contour>
      <point x="800" y="525" type="line"/>
      <point x="644" y="525" type="line"/>
      <point x="540" y="107" type="line"/>
      <point x="541" y="0" type="line"/>
      <point x="626" y="0" type="line"/>
    </contour>
  </outline>
</glyph>
<glyph name="x" format="1">
  <advance width="534.0"/>
  <unicode hex="0078"/>
  <outline>
    <contour>
      <point x="355" y="0" type="line"/>
      <point x="529" y="0" type="line"/>
      <point x="309" y="326" type="line"/>
      <point x="189" y="525" type="line"/>
      <point x="15" y="525" type="line"/>
      <point x="227" y="211" type="line"/>
    </contour>
    <contour>
      <point x="169" y="0" type="line"/>
      <point x="276" y="184" type="line"/>
      <point x="335" y="255" type="line"/>
      <point x="519" y="525" type="line"/>
      <point x="355" y="525" type="line"/>
      <point x="260" y="361" type="line"/>
      <point x="199" y="287" type="line"/>
      <point x="5" y="0" type="line"/>
    </contour>
  </outline>
</glyph>
<glyph name="z" format="1">
  <advance width="501"/>
  <unicode hex="007A"/>
  <outline>
    <contour>
      <point x="35" y="85" type="line"/>
      <point x="147" y="0" type="line"/>
      <point x="456" y="440" type="line"/>
      <point x="344" y="525" type="line"/>
    </contour>
    <contour>
      <point x="35" y="0" type="line"/>
      <point x="466" y="0" type="line"/>
      <point x="466" y="115" type="line"/>
      <point x="94" y="115" type="line"/>
      <point x="35" y="85" type="line"/>
    </contour>
    <contour>
      <point x="45" y="410" type="line"/>
      <point x="398" y="410" type="line"/>
      <point x="456" y="440" type="line"/>
      <point x="456" y="525" type="line"/>
      <point x="45" y="525" type="line"/>
    </contour>
  </outline>
</glyph>
<glyph name="asciitilde" format="1">
  <advance width="660"/>
  <unicode hex="007E"/>
  <outline>
    <contour>
      <point x="106" y="290" type="curve"/>
      <point x="176" y="290" type="line"/>
      <point x="188" y="346"/>
      <point x="208" y="364"/>
      <point x="233" y="364" type="curve"/>
      <point x="286" y="364"/>
      <point x="332" y="285"/>
      <point x="417" y="285" type="curve" smooth="yes"/>
      <point x="493" y="285"/>
      <point x="548" y="342"/>
      <point x="554" y="470" type="curve"/>
      <point x="484" y="470" type="line"/>
      <point x="473" y="414"/>
      <point x="452" y="396"/>
      <point x="427" y="396" type="curve"/>
      <point x="373" y="396"/>
      <point x="327" y="475"/>
      <point x="243" y="475" type="curve" smooth="yes"/>
      <point x="167" y="475"/>
      <point x="111" y="418"/>
    </contour>
  </outline>
</glyph>
<glyph name="exclamdown" format="1">
  <advance width="358"/>
  <unicode hex="00A1"/>
  <outline>
    <contour>
      <point x="96" y="-185" type="line"/>
      <point x="262" y="-185" type="line"/>
      <point x="262" y="0" type="line"/>
      <point x="236" y="265" type="line"/>
      <point x="122" y="265" type="line"/>
      <point x="96" y="0" type="line"/>
    </contour>
    <component base="period" yScale="-1" xOffset="40" yOffset="525"/>
  </outline>
</glyph>
<glyph name="brokenbar" format="1">
  <advance width="310"/>
  <unicode hex="00A6"/>
  <outline>
    <contour>
      <point x="85" y="150" type="line"/>
      <point x="85.0" y="-215.0" type="line"/>
      <point x="225.0" y="-215.0" type="line"/>
      <point x="225" y="150" type="line"/>
    </contour>
    <contour>
      <point x="85.0" y="720.0" type="line"/>
      <point x="85" y="355" type="line"/>
      <point x="225" y="355" type="line"/>
      <point x="225.0" y="720.0" type="line"/>
    </contour>
  </outline>
</glyph>
<glyph name="guillemetleft" format="1">
  <advance width="546"/>
  <unicode hex="00AB"/>
  <outline>
    <contour>
      <point x="132" y="463" type="line"/>
      <point x="35" y="312" type="line"/>
      <point x="35" y="241" type="line"/>
      <point x="155" y="253" type="line"/>
      <point x="294" y="463" type="line"/>
    </contour>
    <contour>
      <point x="132" y="88" type="line"/>
      <point x="294" y="88" type="line"/>
      <point x="155" y="298" type="line"/>
      <point x="35" y="310" type="line"/>
      <point x="35" y="239" type="line"/>
    </contour>
    <contour>
      <point x="364" y="463" type="line"/>
      <point x="267" y="312" type="line"/>
      <point x="267" y="241" type="line"/>
      <point x="387" y="253" type="line"/>
      <point x="526" y="463" type="line"/>
    </contour>
    <contour>
      <point x="364" y="88" type="line"/>
      <point x="526" y="88" type="line"/>
      <point x="387" y="298" type="line"/>
      <point x="267" y="310" type="line"/>
      <point x="267" y="239" type="line"/>
    </contour>
  </outline>
</glyph>
<glyph name="logicalnot" format="1">
  <advance width="660"/>
  <unicode hex="00AC"/>
  <outline>
    <contour>
      <point x="92" y="223" type="line"/>
      <point x="568" y="223" type="line"/>
      <point x="568" y="357" type="line"/>
      <point x="92" y="357" type="line"/>
    </contour>
    <contour>
      <point x="428" y="55" type="line"/>
      <point x="568" y="55" type="line"/>
      <point x="568" y="357" type="line"/>
      <point x="428" y="357" type="line"/>
    </contour>
  </outline>
</glyph>
<glyph name="plusminus" format="1">
  <advance width="660"/>
  <unicode hex="00B1"/>
  <outline>
    <contour>
      <point x="260" y="525" type="line"/>
      <point x="260" y="55" type="line"/>
      <point x="400" y="55" type="line"/>
      <point x="400" y="525" type="line"/>
    </contour>
    <contour>
      <point x="568" y="406" type="line"/>
      <point x="92" y="406" type="line"/>
      <point x="92" y="272" type="line"/>
      <point x="568" y="272" type="line"/>
    </contour>
    <contour>
      <point x="568" y="189" type="line"/>
      <point x="92" y="189" type="line"/>
      <point x="92" y="55" type="line"/>
      <point x="568" y="55" type="line"/>
    </contour>
  </outline>
</glyph>
<glyph name="acute" format="1">
  <advance width="600"/>
  <unicode hex="00B4"/>
  <outline>
    <contour>
      <point x="323" y="750" type="line"/>
      <point x="494" y="750" type="line"/>
      <point x="355" y="600" type="line"/>
      <point x="234" y="600" type="line"/>
    </contour>
    <contour>
      <point x="300" y="525" type="move" name="_top"/>
    </contour>
  </outline>
</glyph>
<glyph name="paragraph" format="1">
  <advance width="804"/>
  <unicode hex="00B6"/>
  <outline>
    <contour>
      <point x="579" y="690" type="line"/>
      <point x="579" y="-215" type="line"/>
      <point x="719" y="-215" type="line"/>
      <point x="719" y="690" type="line"/>
    </contour>
    <contour>
      <point x="339" y="171" type="line"/>
      <point x="339" y="-215" type="line"/>
      <point x="479" y="-215" type="line"/>
      <point x="479" y="690" type="line"/>
      <point x="303" y="690" type="line"/>
      <point x="152" y="690"/>
      <point x="45" y="590"/>
      <point x="45" y="430" type="curve" smooth="yes"/>
      <point x="45" y="270"/>
      <point x="152" y="171"/>
      <point x="303" y="171" type="curve"/>
    </contour>
  </outline>
</glyph>
<glyph name="cedilla" format="1">
  <advance width="600"/>
  <unicode hex="00B8"/>
  <outline>
    <contour>
      <point x="263" y="15" type="line"/>
      <point x="242" y="-83" type="line"/>
      <point x="262" y="-85" type="line" smooth="yes"/>
      <point x="295" y="-88"/>
      <point x="309" y="-96"/>
      <point x="309" y="-109" type="curve"/>
      <point x="309" y="-125"/>
      <point x="295" y="-138"/>
      <point x="234" y="-138" type="curve"/>
      <point x="220" y="-197" type="line"/>
      <point x="256" y="-197" type="line" smooth="yes"/>
      <point x="366" y="-197"/>
      <point x="408" y="-158"/>
      <point x="408" y="-107" type="curve"/>
      <point x="408" y="-75"/>
      <point x="385" y="-50"/>
      <point x="327" y="-40" type="curve"/>
      <point x="335" y="9" type="line"/>
    </contour>
    <contour>
      <point x="300.0" y="0.0" type="move" name="_bottom"/>
    </contour>
  </outline>
</glyph>
<glyph name="guillemetright" format="1">
  <advance width="546"/>
  <unicode hex="00BB"/>
  <outline>
    <contour>
      <point x="414" y="463" type="line"/>
      <point x="252" y="463" type="line"/>
      <point x="391" y="253" type="line"/>
      <point x="511" y="241" type="line"/>
      <point x="511" y="312" type="line"/>
    </contour>
    <contour>
      <point x="414" y="88" type="line"/>
      <point x="511" y="239" type="line"/>
      <point x="511" y="310" type="line"/>
      <point x="391" y="298" type="line"/>
      <point x="252" y="88" type="line"/>
    </contour>
    <contour>
      <point x="182" y="463" type="line"/>
      <point x="20" y="463" type="line"/>
      <point x="159" y="253" type="line"/>
      <point x="279" y="241" type="line"/>
      <point x="279" y="312" type="line"/>
    </contour>
    <contour>
      <point x="182" y="88" type="line"/>
      <point x="279" y="239" type="line"/>
      <point x="279" y="310" type="line"/>
      <point x="159" y="298" type="line"/>
      <point x="20" y="88" type="line"/>
    </contour>
  </outline>
</glyph>
<glyph name="Eth" format="1">
  <advance width="724"/>
  <unicode hex="00D0"/>
  <outline>
    <contour>
      <point x="376" y="407" type="line"/>
      <point x="30" y="407" type="line"/>
      <point x="30" y="273" type="line"/>
      <point x="376" y="273" type="line"/>
    </contour>
    <component base="D"/>
  </outline>
</glyph>
<glyph name="divide" format="1">
  <advance width="660"/>
  <unicode hex="00F7"/>
  <outline>
    <contour>
      <point x="330" y="579" type="curve" smooth="yes"/>
      <point x="276" y="579"/>
      <point x="238" y="538"/>
      <point x="238" y="488" type="curve" smooth="yes"/>
      <point x="238" y="438"/>
      <point x="276" y="397"/>
      <point x="330" y="397" type="curve" smooth="yes"/>
      <point x="384" y="397"/>
      <point x="422" y="438"/>
      <point x="422" y="488" type="curve" smooth="yes"/>
      <point x="422" y="538"/>
      <point x="384" y="579"/>
    </contour>
    <contour>
      <point x="568" y="357" type="line"/>
      <point x="92" y="357" type="line"/>
      <point x="92" y="223" type="line"/>
      <point x="568" y="223" type="line"/>
    </contour>
    <contour>
      <point x="330" y="183" type="curve" smooth="yes"/>
      <point x="276" y="183"/>
      <point x="238" y="142"/>
      <point x="238" y="92" type="curve" smooth="yes"/>
      <point x="238" y="42"/>
      <point x="276" y="1"/>
      <point x="330" y="1" type="curve" smooth="yes"/>
      <point x="384" y="1"/>
      <point x="422" y="42"/>
      <point x="422" y="92" type="curve" smooth="yes"/>
      <point x="422" y="142"/>
      <point x="384" y="183"/>
    </contour>
  </outline>
</glyph>
<glyph name="OE" format="1">
  <advance width="1000"/>
  <unicode hex="0152"/>
  <outline>
    <contour>
      <point x="480" y="690" type="line"/>
      <point x="480" y="0" type="line"/>
      <point x="640" y="0" type="line"/>
      <point x="640" y="690" type="line"/>
    </contour>
    <contour>
      <point x="888" y="414" type="line"/>
      <point x="554" y="414" type="line"/>
      <point x="554" y="282" type="line"/>
      <point x="888" y="282" type="line"/>
    </contour>
    <contour>
      <point x="935" y="690" type="line"/>
      <point x="554" y="690" type="line"/>
      <point x="554" y="550" type="line"/>
      <point x="935" y="550" type="line"/>
    </contour>
    <contour>
      <point x="940" y="140" type="line"/>
      <point x="554" y="140" type="line"/>
      <point x="554" y="0" type="line"/>
      <point x="940" y="0" type="line"/>
    </contour>
    <contour>
      <point x="412" y="140" type="line" smooth="yes"/>
      <point x="295" y="140"/>
      <point x="208" y="201"/>
      <point x="208" y="345" type="curve" smooth="yes"/>
      <point x="208" y="489"/>
      <point x="295" y="550"/>
      <point x="412" y="550" type="curve"/>
      <point x="412" y="550"/>
      <point x="502" y="550"/>
      <point x="502" y="550" type="curve"/>
      <point x="502" y="690" type="line"/>
      <point x="412" y="690" type="line" smooth="yes"/>
      <point x="210" y="690"/>
      <point x="45" y="568"/>
      <point x="45" y="345" type="curve" smooth="yes"/>
      <point x="45" y="122"/>
      <point x="210" y="0"/>
      <point x="412" y="0" type="curve"/>
      <point x="412" y="0"/>
      <point x="502" y="0"/>
      <point x="502" y="0" type="curve"/>
      <point x="502" y="140" type="line"/>
    </contour>
  </outline>
</glyph>
<glyph name="circumflex" format="1">
  <advance width="600"/>
  <unicode hex="02C6"/>
  <outline>
    <contour>
      <point x="125" y="600" type="line"/>
      <point x="227" y="750" type="line"/>
      <point x="371" y="750" type="line"/>
      <point x="246" y="600" type="line"/>
    </contour>
    <contour>
      <point x="229" y="750" type="line"/>
      <point x="373" y="750" type="line"/>
      <point x="475" y="600" type="line"/>
      <point x="354" y="600" type="line"/>
    </contour>
    <contour>
      <point x="300" y="525" type="move" name="_top"/>
    </contour>
  </outline>
</glyph>
<glyph name="caron" format="1">
  <advance width="600"/>
  <unicode hex="02C7"/>
  <outline>
    <contour>
      <point x="373" y="600" type="line"/>
      <point x="229" y="600" type="line"/>
      <point x="354" y="750" type="line"/>
      <point x="475" y="750" type="line"/>
    </contour>
    <contour>
      <point x="227" y="600" type="line"/>
      <point x="125" y="750" type="line"/>
      <point x="246" y="750" type="line"/>
      <point x="371" y="600" type="line"/>
    </contour>
    <contour>
      <point x="300.0" y="525.0" type="move" name="_top"/>
    </contour>
  </outline>
</glyph>
<glyph name="ring" format="1">
  <advance width="600"/>
  <unicode hex="02DA"/>
  <outline>
    <contour>
      <point x="179" y="709" type="curve" smooth="yes"/>
      <point x="179" y="638"/>
      <point x="232" y="590"/>
      <point x="300" y="590" type="curve" smooth="yes"/>
      <point x="368" y="590"/>
      <point x="422" y="638"/>
      <point x="422" y="709" type="curve" smooth="yes"/>
      <point x="422" y="780"/>
      <point x="368" y="828"/>
      <point x="300" y="828" type="curve" smooth="yes"/>
      <point x="232" y="828"/>
      <point x="179" y="780"/>
    </contour>
    <contour>
      <point x="262" y="709" type="curve" smooth="yes"/>
      <point x="262" y="737"/>
      <point x="277" y="756"/>
      <point x="300" y="756" type="curve" smooth="yes"/>
      <point x="324" y="756"/>
      <point x="339" y="737"/>
      <point x="339" y="709" type="curve" smooth="yes"/>
      <point x="339" y="680"/>
      <point x="324" y="662"/>
      <point x="300" y="662" type="curve" smooth="yes"/>
      <point x="277" y="662"/>
      <point x="262" y="680"/>
    </contour>
    <contour>
      <point x="300" y="525" type="move" name="_top"/>
    </contour>
  </outline>
</glyph>
<glyph name="guilsinglleft" format="1">
  <advance width="314"/>
  <unicode hex="2039"/>
  <outline>
    <contour>
      <point x="132" y="463" type="line"/>
      <point x="35" y="312" type="line"/>
      <point x="35" y="241" type="line"/>
      <point x="155" y="253" type="line"/>
      <point x="294" y="463" type="line"/>
    </contour>
    <contour>
      <point x="132" y="88" type="line"/>
      <point x="294" y="88" type="line"/>
      <point x="155" y="298" type="line"/>
      <point x="35" y="310" type="line"/>
      <point x="35" y="239" type="line"/>
    </contour>
  </outline>
</glyph>
<glyph name="minus" format="1">
  <advance width="660"/>
  <unicode hex="2212"/>
  <outline>
    <contour>
      <point x="568" y="357" type="line"/>
      <point x="92" y="357" type="line"/>
      <point x="92" y="223" type="line"/>
      <point x="568" y="223" type="line"/>
    </contour>
  </outline>
</glyph>
<glyph name="acute.cap" format="1">
  <advance width="600"/>
  <outline>
    <contour>
      <point x="232" y="750" type="line"/>
      <point x="336" y="885" type="line"/>
      <point x="510" y="885" type="line"/>
      <point x="358" y="750" type="line"/>
    </contour>
    <contour>
      <point x="300.0" y="690.0" type="move" name="_top"/>
    </contour>
  </outline>
</glyph>
<glyph name="circumflex.cap" format="1">
  <advance width="600"/>
  <outline>
    <contour>
      <point x="112" y="750" type="line"/>
      <point x="216" y="885" type="line"/>
      <point x="380" y="885" type="line"/>
      <point x="238" y="750" type="line"/>
    </contour>
    <contour>
      <point x="222" y="885" type="line"/>
      <point x="386" y="885" type="line"/>
      <point x="490" y="750" type="line"/>
      <point x="364" y="750" type="line"/>
    </contour>
    <contour>
      <point x="300.0" y="690.0" type="move" name="_top"/>
    </contour>
  </outline>
</glyph>
<glyph name="dieresis.cap" format="1">
  <advance width="600"/>
  <outline>
    <contour>
      <point x="414" y="905" type="curve" smooth="yes"/>
      <point x="368" y="905"/>
      <point x="337" y="875"/>
      <point x="337" y="830" type="curve" smooth="yes"/>
      <point x="337" y="785"/>
      <point x="368" y="755"/>
      <point x="414" y="755" type="curve" smooth="yes"/>
      <point x="460" y="755"/>
      <point x="491" y="785"/>
      <point x="491" y="830" type="curve"/>
      <point x="491" y="875"/>
      <point x="460" y="905"/>
    </contour>
    <contour>
      <point x="186" y="905" type="curve" smooth="yes"/>
      <point x="140" y="905"/>
      <point x="109" y="875"/>
      <point x="109" y="830" type="curve" smooth="yes"/>
      <point x="109" y="785"/>
      <point x="140" y="755"/>
      <point x="186" y="755" type="curve" smooth="yes"/>
      <point x="232" y="755"/>
      <point x="263" y="785"/>
      <point x="263" y="830" type="curve"/>
      <point x="263" y="875"/>
      <point x="232" y="905"/>
    </contour>
    <contour>
      <point x="300.0" y="690.0" type="move" name="_top"/>
    </contour>
  </outline>
</glyph>
<glyph name="grave.cap" format="1">
  <advance width="600"/>
  <outline>
    <contour>
      <point x="264" y="885" type="line"/>
      <point x="368" y="750" type="line"/>
      <point x="242" y="750" type="line"/>
      <point x="90" y="885" type="line"/>
    </contour>
    <contour>
      <point x="300" y="690" type="move" name="_top"/>
    </contour>
  </outline>
</glyph>
<glyph name="ring.cap" format="1">
  <advance width="600"/>
  <outline>
    <contour>
      <point x="300" y="740" type="curve" smooth="yes"/>
      <point x="368.0" y="740.0"/>
      <point x="422.0" y="783.9663865546217"/>
      <point x="422" y="849" type="curve" smooth="yes"/>
      <point x="422.0" y="914.0"/>
      <point x="368.0" y="958.0"/>
      <point x="300" y="958" type="curve" smooth="yes"/>
      <point x="232.0" y="958.0"/>
      <point x="179.0" y="914.0"/>
      <point x="179" y="849" type="curve" smooth="yes"/>
      <point x="179.0" y="783.9663865546217"/>
      <point x="232.0" y="740.0"/>
    </contour>
    <contour>
      <point x="300" y="812" type="curve" smooth="yes"/>
      <point x="277.0" y="812.0"/>
      <point x="262.0" y="826.1702127659574"/>
      <point x="262" y="849" type="curve" smooth="yes"/>
      <point x="262.0" y="871.0"/>
      <point x="277.0" y="886.0"/>
      <point x="300" y="886" type="curve" smooth="yes"/>
      <point x="324.0" y="886.0"/>
      <point x="339.0" y="870.9999999999999"/>
      <point x="339" y="849" type="curve" smooth="yes"/>
      <point x="339.0" y="826.1702127659574"/>
      <point x="324.0" y="812.0"/>
    </contour>
    <contour>
      <point x="300" y="690" type="move" name="_top"/>
    </contour>
  </outline>
</glyph>
<glyph name="tilde.cap" format="1">
  <advance width="600"/>
  <outline>
    <contour>
      <point x="129" y="761" type="curve"/>
      <point x="199" y="761" type="line"/>
      <point x="204" y="791"/>
      <point x="220" y="800"/>
      <point x="239" y="800" type="curve" smooth="yes"/>
      <point x="269" y="800"/>
      <point x="309" y="756"/>
      <point x="362" y="756" type="curve" smooth="yes"/>
      <point x="426" y="756"/>
      <point x="463" y="808"/>
      <point x="471" y="891" type="curve"/>
      <point x="401" y="891" type="line"/>
      <point x="396" y="861"/>
      <point x="380" y="852"/>
      <point x="361" y="852" type="curve" smooth="yes"/>
      <point x="331" y="852"/>
      <point x="291" y="896"/>
      <point x="238" y="896" type="curve" smooth="yes"/>
      <point x="174" y="896"/>
      <point x="137" y="844"/>
    </contour>
    <contour>
      <point x="300" y="690" type="move" name="_top"/>
    </contour>
  </outline>
</glyph>
